<svg width="14" height="17" viewBox="0 0 14 17" fill="none" xmlns="http://www.w3.org/2000/svg">
<g clip-path="url(#clip0_1341_1206)">
<path d="M7.53125 6.28125L9.78125 4.03125C10.075 3.7375 10.075 3.2625 9.78125 2.97187C9.4875 2.68125 9.0125 2.67812 8.72188 2.97187L7.75313 3.94062L7.75 1.25C7.75 0.834375 7.41563 0.5 7 0.5C6.58437 0.5 6.25 0.834375 6.25 1.25V3.94062L5.28125 2.96875C4.9875 2.675 4.5125 2.675 4.22188 2.96875C3.93125 3.2625 3.92813 3.7375 4.22188 4.02813L6.47188 6.27812C6.76562 6.57187 7.24062 6.57187 7.53125 6.27812V6.28125ZM0 8.5C0 8.91562 0.334375 9.25 0.75 9.25H13.25C13.6656 9.25 14 8.91562 14 8.5C14 8.08437 13.6656 7.75 13.25 7.75H0.75C0.334375 7.75 0 8.08437 0 8.5ZM7.53125 10.7188C7.2375 10.425 6.7625 10.425 6.47188 10.7188L4.22188 12.9688C3.92813 13.2625 3.92813 13.7375 4.22188 14.0281C4.51562 14.3187 4.99062 14.3219 5.28125 14.0281L6.25 13.0594V15.75C6.25 16.1656 6.58437 16.5 7 16.5C7.41563 16.5 7.75 16.1656 7.75 15.75V13.0594L8.71875 14.0281C9.0125 14.3219 9.4875 14.3219 9.77812 14.0281C10.0687 13.7344 10.0719 13.2594 9.77812 12.9688L7.52812 10.7188H7.53125Z" fill="#143D60"/>
</g>
<defs>
<clipPath id="clip0_1341_1206">
<rect width="14" height="16" fill="white" transform="translate(0 0.5)"/>
</clipPath>
</defs>
</svg>
