<svg width="14" height="17" viewBox="0 0 14 17" fill="none" xmlns="http://www.w3.org/2000/svg">
<g clip-path="url(#clip0_5993_708)">
<path d="M7.53125 0.718848C7.2375 0.425098 6.7625 0.425098 6.47188 0.718848L4.21875 2.96885C3.925 3.2626 3.925 3.7376 4.21875 4.02822C4.5125 4.31885 4.9875 4.32197 5.27812 4.02822L6.24687 3.05947V5.7501C6.24687 6.16572 6.58125 6.5001 6.99687 6.5001C7.4125 6.5001 7.74687 6.16572 7.74687 5.7501V3.05947L8.71562 4.02822C9.00937 4.32197 9.48438 4.32197 9.775 4.02822C10.0656 3.73447 10.0687 3.25947 9.775 2.96885L7.53125 0.718848ZM7.75 11.2501C7.75 10.8345 7.41563 10.5001 7 10.5001C6.58437 10.5001 6.25 10.8345 6.25 11.2501V13.9407L5.28125 12.972C4.9875 12.6782 4.5125 12.6782 4.22188 12.972C3.93125 13.2657 3.92813 13.7407 4.22188 14.0313L6.47188 16.2813C6.76562 16.5751 7.24062 16.5751 7.53125 16.2813L9.78125 14.0313C10.075 13.7376 10.075 13.2626 9.78125 12.972C9.4875 12.6813 9.0125 12.6782 8.72188 12.972L7.75313 13.9407V11.2501H7.75ZM0.75 7.7501C0.334375 7.7501 0 8.08447 0 8.5001C0 8.91572 0.334375 9.2501 0.75 9.2501H13.25C13.6656 9.2501 14 8.91572 14 8.5001C14 8.08447 13.6656 7.7501 13.25 7.7501H0.75Z" fill="#143D60"/>
</g>
<defs>
<clipPath id="clip0_5993_708">
<rect width="14" height="16" fill="white" transform="translate(0 0.5)"/>
</clipPath>
</defs>
</svg>
