<svg width="40" height="40" viewBox="0 0 40 40" fill="none" xmlns="http://www.w3.org/2000/svg">
<rect width="40" height="40" rx="20" fill="#D0D8DF"/>
<path d="M14.5 14.5C13.3969 14.5 12.5 15.3969 12.5 16.5C12.5 17.6031 13.3969 18.5 14.5 18.5H18.2625H20H20.5V14.5H14.5ZM13.4719 19.8469C12.0406 19.4094 11 18.075 11 16.5C11 14.5656 12.5656 13 14.5 13H20.5C21.3281 13 22 13.6719 22 14.5V18.5C22 19.3281 21.3281 20 20.5 20H19.125L15.5094 26.2C15.0906 26.9187 14.1688 27.1594 13.4531 26.7375L11.7812 25.7531C11.0719 25.3375 10.8313 24.425 11.2438 23.7125L13.4719 19.8469ZM15.1156 20L12.5438 24.4625L14.2156 25.4438L17.3875 20H15.1156ZM24.75 13H28.25C28.6656 13 29 13.3344 29 13.75C29 14.1656 28.6656 14.5 28.25 14.5H24.75C24.3344 14.5 24 14.1656 24 13.75C24 13.3344 24.3344 13 24.75 13ZM24 18.75C24 18.3344 24.3344 18 24.75 18H28.25C28.6656 18 29 18.3344 29 18.75C29 19.1656 28.6656 19.5 28.25 19.5H24.75C24.3344 19.5 24 19.1656 24 18.75ZM24.75 25.5H28.25C28.6656 25.5 29 25.8344 29 26.25C29 26.6656 28.6656 27 28.25 27H24.75C24.3344 27 24 26.6656 24 26.25C24 25.8344 24.3344 25.5 24.75 25.5ZM24 16.5C24 16.225 24.225 16 24.5 16H28.5C28.775 16 29 16.225 29 16.5C29 16.775 28.775 17 28.5 17H24.5C24.225 17 24 16.775 24 16.5ZM24.5 21H28.5C28.775 21 29 21.225 29 21.5C29 21.775 28.775 22 28.5 22H24.5C24.225 22 24 21.775 24 21.5C24 21.225 24.225 21 24.5 21ZM24 23.5C24 23.225 24.225 23 24.5 23H28.5C28.775 23 29 23.225 29 23.5C29 23.775 28.775 24 28.5 24H24.5C24.225 24 24 23.775 24 23.5Z" fill="#143D60"/>
</svg>
