<svg width="20" height="21" viewBox="0 0 20 21" fill="none" xmlns="http://www.w3.org/2000/svg">
<path d="M2.75 4.22729C2.6125 4.22729 2.5 4.33979 2.5 4.47729V6.97729C2.5 7.39292 2.16562 7.72729 1.75 7.72729C1.33437 7.72729 1 7.39292 1 6.97729V4.47729C1 3.51167 1.78438 2.72729 2.75 2.72729H5.25C5.66563 2.72729 6 3.06167 6 3.47729C6 3.89292 5.66563 4.22729 5.25 4.22729H2.75ZM4.75 6.72729C5.16563 6.72729 5.5 7.06167 5.5 7.47729V13.9773C5.5 14.3929 5.16563 14.7273 4.75 14.7273C4.33437 14.7273 4 14.3929 4 13.9773V7.47729C4 7.06167 4.33437 6.72729 4.75 6.72729ZM6.5 7.22729C6.5 6.95229 6.725 6.72729 7 6.72729C7.275 6.72729 7.5 6.95229 7.5 7.22729V14.2273C7.5 14.5023 7.275 14.7273 7 14.7273C6.725 14.7273 6.5 14.5023 6.5 14.2273V7.22729ZM15 7.22729C15 6.95229 15.225 6.72729 15.5 6.72729C15.775 6.72729 16 6.95229 16 7.22729V14.2273C16 14.5023 15.775 14.7273 15.5 14.7273C15.225 14.7273 15 14.5023 15 14.2273V7.22729ZM8.5 7.47729C8.5 7.06167 8.83437 6.72729 9.25 6.72729C9.66562 6.72729 10 7.06167 10 7.47729V13.9773C10 14.3929 9.66562 14.7273 9.25 14.7273C8.83437 14.7273 8.5 14.3929 8.5 13.9773V7.47729ZM13.25 6.72729C13.6656 6.72729 14 7.06167 14 7.47729V13.9773C14 14.3929 13.6656 14.7273 13.25 14.7273C12.8344 14.7273 12.5 14.3929 12.5 13.9773V7.47729C12.5 7.06167 12.8344 6.72729 13.25 6.72729ZM17.5 4.47729C17.5 4.33979 17.3875 4.22729 17.25 4.22729H14.75C14.3344 4.22729 14 3.89292 14 3.47729C14 3.06167 14.3344 2.72729 14.75 2.72729H17.25C18.2156 2.72729 19 3.51167 19 4.47729V6.97729C19 7.39292 18.6656 7.72729 18.25 7.72729C17.8344 7.72729 17.5 7.39292 17.5 6.97729V4.47729ZM2.75 17.2273H5.25C5.66563 17.2273 6 17.5617 6 17.9773C6 18.3929 5.66563 18.7273 5.25 18.7273H2.75C1.78438 18.7273 1 17.9429 1 16.9773V14.4773C1 14.0617 1.33437 13.7273 1.75 13.7273C2.16562 13.7273 2.5 14.0617 2.5 14.4773V16.9773C2.5 17.1148 2.6125 17.2273 2.75 17.2273ZM17.5 16.9773V14.4773C17.5 14.0617 17.8344 13.7273 18.25 13.7273C18.6656 13.7273 19 14.0617 19 14.4773V16.9773C19 17.9429 18.2156 18.7273 17.25 18.7273H14.75C14.3344 18.7273 14 18.3929 14 17.9773C14 17.5617 14.3344 17.2273 14.75 17.2273H17.25C17.3875 17.2273 17.5 17.1148 17.5 16.9773Z" fill="#3B5D7B"/>
</svg>
