<svg width="40" height="41" viewBox="0 0 40 41" fill="none" xmlns="http://www.w3.org/2000/svg">
<rect y="0.727295" width="40" height="40" rx="20" fill="#D0D8DF"/>
<g clip-path="url(#clip0_3877_1189)">
<path d="M20.0844 14.2367C20.0312 14.218 19.9719 14.218 19.9156 14.2367L17.3781 15.143L20 16.1492L22.6219 15.1461L20.0844 14.2398V14.2367ZM16.5 19.2023L19.25 20.1836V17.468L16.5 16.4148V19.2055V19.2023ZM20.75 20.1836L23.5 19.2023V16.4117L20.75 17.4648V20.1805V20.1836ZM25 15.6336V19.2148L27.8719 20.3023C28.5531 20.5586 29 21.2117 29 21.9398V25.6617C29 26.3555 28.5906 26.9836 27.9531 27.2648L24.9406 28.5898C24.5031 28.7805 24.0094 28.7867 23.5688 28.6055L20 27.1242L16.4313 28.6023C15.9906 28.7836 15.4937 28.7805 15.0594 28.5867L12.0469 27.2617C11.4094 26.9836 11 26.3555 11 25.6617V21.9367C11 21.2086 11.45 20.5586 12.1281 20.2992L15 19.2117V15.6336C15 14.893 15.4656 14.2336 16.1625 13.9867L19.4125 12.8273C19.7938 12.693 20.2094 12.693 20.5875 12.8273L23.8375 13.9867C24.5344 14.2336 25 14.893 25 15.6336ZM19.25 22.7336L16.5 23.7867V26.9523L19.25 25.8148V22.7336ZM12.65 25.8898L15 26.9242V23.7867L12.5 22.8273V25.6617C12.5 25.7617 12.5594 25.8492 12.65 25.8898ZM23.5 26.9492V23.7836L20.75 22.7305V25.8117L23.5 26.9492ZM25 26.9211L27.35 25.8867C27.4406 25.8461 27.5 25.7555 27.5 25.6586V22.8242L25 23.7836V26.9211ZM15.8438 20.5617C15.7875 20.543 15.7281 20.543 15.6719 20.5648L13.2125 21.4961L15.75 22.468L18.3719 21.4648L15.8438 20.5617ZM24.1562 20.5617L21.6281 21.4648L24.25 22.468L26.7875 21.4961L24.3281 20.5648C24.2719 20.543 24.2125 20.543 24.1562 20.5617Z" fill="#143D60"/>
</g>
<defs>
<clipPath id="clip0_3877_1189">
<rect width="18" height="16" fill="white" transform="translate(11 12.7273)"/>
</clipPath>
</defs>
</svg>
