<svg width="20" height="20" viewBox="0 0 20 20" fill="none" xmlns="http://www.w3.org/2000/svg">
<path d="M10 3.5C11.3813 3.5 12.5 4.61875 12.5 6V8H7.5V6C7.5 4.61875 8.61875 3.5 10 3.5ZM6 6V8H5C3.89688 8 3 8.89687 3 10V16C3 17.1031 3.89688 18 5 18H15C16.1031 18 17 17.1031 17 16V10C17 8.89687 16.1031 8 15 8H14V6C14 3.79063 12.2094 2 10 2C7.79063 2 6 3.79063 6 6ZM5 9.5H15C15.275 9.5 15.5 9.725 15.5 10V16C15.5 16.275 15.275 16.5 15 16.5H5C4.725 16.5 4.5 16.275 4.5 16V10C4.5 9.725 4.725 9.5 5 9.5ZM10.75 12C10.75 11.5844 10.4156 11.25 10 11.25C9.58437 11.25 9.25 11.5844 9.25 12V14C9.25 14.4156 9.58437 14.75 10 14.75C10.4156 14.75 10.75 14.4156 10.75 14V12Z" fill="#3B5D7B"/>
</svg>
