<svg width="20" height="20" viewBox="0 0 20 20" fill="none" xmlns="http://www.w3.org/2000/svg">
<path d="M14.5 3.5C13.1187 3.5 12 4.61875 12 6V8H13C14.1031 8 15 8.89687 15 10V16C15 17.1031 14.1031 18 13 18H3C1.89688 18 1 17.1031 1 16V10C1 8.89687 1.89688 8 3 8H10.5V6C10.5 3.79063 12.2906 2 14.5 2C16.7094 2 18.5 3.79063 18.5 6V8.25C18.5 8.66563 18.1656 9 17.75 9C17.3344 9 17 8.66563 17 8.25V6C17 4.61875 15.8813 3.5 14.5 3.5ZM13 9.5H3C2.725 9.5 2.5 9.725 2.5 10V16C2.5 16.275 2.725 16.5 3 16.5H13C13.275 16.5 13.5 16.275 13.5 16V10C13.5 9.725 13.275 9.5 13 9.5ZM9 13.75H7C6.58437 13.75 6.25 13.4156 6.25 13C6.25 12.5844 6.58437 12.25 7 12.25H9C9.41562 12.25 9.75 12.5844 9.75 13C9.75 13.4156 9.41562 13.75 9 13.75Z" fill="#3B5D7B"/>
</svg>
