<svg width="40" height="41" viewBox="0 0 40 41" fill="none" xmlns="http://www.w3.org/2000/svg">
<rect y="0.727295" width="40" height="40" rx="20" fill="#D0D8DF"/>
<g clip-path="url(#clip0_3877_1162)">
<path d="M10 13.4773C10 13.8929 10.3344 14.2273 10.75 14.2273H11V17.2273H10.75C10.3344 17.2273 10 17.5617 10 17.9773C10 18.3929 10.3344 18.7273 10.75 18.7273H20.25C20.6656 18.7273 21 18.3929 21 17.9773C21 17.5617 20.6656 17.2273 20.25 17.2273H20V14.2273H20.25C20.6656 14.2273 21 13.8929 21 13.4773C21 13.0617 20.6656 12.7273 20.25 12.7273H10.75C10.3344 12.7273 10 13.0617 10 13.4773ZM18.5 17.2273H17.5V14.2273H18.5V17.2273ZM15 14.2273H16V17.2273H15V14.2273ZM13.5 17.2273H12.5V14.2273H13.5V17.2273ZM22.75 15.7273C22.3344 15.7273 22 16.0617 22 16.4773V19.7273H11.75C10.7844 19.7273 10 20.5117 10 21.4773V23.9773C10 24.9429 10.7844 25.7273 11.75 25.7273H12C12 27.3835 13.3438 28.7273 15 28.7273C16.6562 28.7273 18 27.3835 18 25.7273H22C22 27.3835 23.3438 28.7273 25 28.7273C26.6562 28.7273 28 27.3835 28 25.7273H28.25C29.2156 25.7273 30 24.9429 30 23.9773V20.5773C30 20.1804 29.8656 19.7929 29.6156 19.4835L27.1344 16.3835C26.8031 15.9679 26.3 15.7273 25.7688 15.7273H22.75ZM12.4 24.2273H11.75C11.6125 24.2273 11.5 24.1148 11.5 23.9773V21.4773C11.5 21.3398 11.6125 21.2273 11.75 21.2273H22H23.5H28.5V23.9773C28.5 24.1148 28.3875 24.2273 28.25 24.2273H27.6C27.0813 23.3304 26.1125 22.7273 25 22.7273C23.8875 22.7273 22.9187 23.3304 22.4 24.2273H17.5969C17.0781 23.3304 16.1094 22.7273 14.9969 22.7273C13.8844 22.7273 12.9156 23.3304 12.3969 24.2273H12.4ZM23.5 19.7273V17.2273H25.7688C25.8438 17.2273 25.9156 17.2617 25.9625 17.321L27.8875 19.7273H23.5ZM13.5 25.7273C13.5 25.3295 13.658 24.9479 13.9393 24.6666C14.2206 24.3853 14.6022 24.2273 15 24.2273C15.3978 24.2273 15.7794 24.3853 16.0607 24.6666C16.342 24.9479 16.5 25.3295 16.5 25.7273C16.5 26.1251 16.342 26.5067 16.0607 26.788C15.7794 27.0693 15.3978 27.2273 15 27.2273C14.6022 27.2273 14.2206 27.0693 13.9393 26.788C13.658 26.5067 13.5 26.1251 13.5 25.7273ZM25 24.2273C25.3978 24.2273 25.7794 24.3853 26.0607 24.6666C26.342 24.9479 26.5 25.3295 26.5 25.7273C26.5 26.1251 26.342 26.5067 26.0607 26.788C25.7794 27.0693 25.3978 27.2273 25 27.2273C24.6022 27.2273 24.2206 27.0693 23.9393 26.788C23.658 26.5067 23.5 26.1251 23.5 25.7273C23.5 25.3295 23.658 24.9479 23.9393 24.6666C24.2206 24.3853 24.6022 24.2273 25 24.2273Z" fill="#143D60"/>
</g>
<defs>
<clipPath id="clip0_3877_1162">
<rect width="20" height="16" fill="white" transform="translate(10 12.7273)"/>
</clipPath>
</defs>
</svg>
