<svg width="40" height="41" viewBox="0 0 40 41" fill="none" xmlns="http://www.w3.org/2000/svg">
<rect y="0.727295" width="40" height="40" rx="20" fill="#D0D8DF"/>
<g clip-path="url(#clip0_3877_1178)">
<path d="M10.75 12.7273C10.3344 12.7273 10 13.0617 10 13.4773C10 13.8929 10.3344 14.2273 10.75 14.2273H12.25C12.3875 14.2273 12.5 14.3398 12.5 14.4773V25.4773C12.5 26.4429 13.2844 27.2273 14.25 27.2273H15C15 28.0554 15.6719 28.7273 16.5 28.7273C17.3281 28.7273 18 28.0554 18 27.2273H24C24 28.0554 24.6719 28.7273 25.5 28.7273C26.3281 28.7273 27 28.0554 27 27.2273H29.25C29.6656 27.2273 30 26.8929 30 26.4773C30 26.0617 29.6656 25.7273 29.25 25.7273H25.5H16.5H14.25C14.1125 25.7273 14 25.6148 14 25.4773V14.4773C14 13.5117 13.2156 12.7273 12.25 12.7273H10.75ZM17.5 15.2273H21.5V22.2273H17.5V15.2273ZM16 15.2273V22.2273C16 23.0554 16.6719 23.7273 17.5 23.7273H21.5C22.3281 23.7273 23 23.0554 23 22.2273V15.2273C23 14.3992 22.3281 13.7273 21.5 13.7273H17.5C16.6719 13.7273 16 14.3992 16 15.2273ZM27.5 15.2273V17.2273H25.5V15.2273H27.5ZM25.5 13.7273C24.6719 13.7273 24 14.3992 24 15.2273V17.2273C24 18.0554 24.6719 18.7273 25.5 18.7273H27.5C28.3281 18.7273 29 18.0554 29 17.2273V15.2273C29 14.3992 28.3281 13.7273 27.5 13.7273H25.5ZM25.5 21.2273H28.5V22.2273H25.5V21.2273ZM24 21.2273V22.2273C24 23.0554 24.6719 23.7273 25.5 23.7273H28.5C29.3281 23.7273 30 23.0554 30 22.2273V21.2273C30 20.3992 29.3281 19.7273 28.5 19.7273H25.5C24.6719 19.7273 24 20.3992 24 21.2273Z" fill="#143D60"/>
</g>
<defs>
<clipPath id="clip0_3877_1178">
<rect width="20" height="16" fill="white" transform="translate(10 12.7273)"/>
</clipPath>
</defs>
</svg>
