<svg width="64" height="65" viewBox="0 0 64 65" fill="none" xmlns="http://www.w3.org/2000/svg">
<g clip-path="url(#clip0_3562_1087)">
<path d="M16 3.86426V8.86426H22V3.86426C22 2.20176 20.6625 0.864258 19 0.864258C17.3375 0.864258 16 2.20176 16 3.86426ZM38 3.86426V8.86426H44V3.86426C44 2.20176 42.6625 0.864258 41 0.864258C39.3375 0.864258 38 2.20176 38 3.86426ZM30 0.864258C28.9 0.864258 28 1.76426 28 2.86426V8.86426H32V2.86426C32 1.76426 31.1 0.864258 30 0.864258ZM48 2.86426V34.8643C48 35.9643 48.9 36.8643 50 36.8643C51.1 36.8643 52 35.9643 52 34.8643V2.86426C52 1.76426 51.1 0.864258 50 0.864258C48.9 0.864258 48 1.76426 48 2.86426ZM61 0.864258C59.3375 0.864258 58 2.20176 58 3.86426V33.8643C58 35.5268 59.3375 36.8643 61 36.8643C62.6625 36.8643 64 35.5268 64 33.8643V3.86426C64 2.20176 62.6625 0.864258 61 0.864258ZM8 18.8643H36C37.1 18.8643 38 19.7643 38 20.8643V56.8643C38 57.9643 37.1 58.8643 36 58.8643H8C6.9 58.8643 6 57.9643 6 56.8643V20.8643C6 19.7643 6.9 18.8643 8 18.8643ZM8 12.8643C3.5875 12.8643 0 16.4518 0 20.8643V56.8643C0 61.2768 3.5875 64.8643 8 64.8643H36C40.4125 64.8643 44 61.2768 44 56.8643V20.8643C44 16.4518 40.4125 12.8643 36 12.8643H8ZM13 22.8643C11.3375 22.8643 10 24.2018 10 25.8643V29.8643C10 31.5268 11.3375 32.8643 13 32.8643H31C32.6625 32.8643 34 31.5268 34 29.8643V25.8643C34 24.2018 32.6625 22.8643 31 22.8643H13ZM12 38.8643C10.9 38.8643 10 39.7643 10 40.8643V42.8643C10 43.9643 10.9 44.8643 12 44.8643H18C19.1 44.8643 20 43.9643 20 42.8643V40.8643C20 39.7643 19.1 38.8643 18 38.8643H12ZM10 50.8643V52.8643C10 53.9643 10.9 54.8643 12 54.8643H18C19.1 54.8643 20 53.9643 20 52.8643V50.8643C20 49.7643 19.1 48.8643 18 48.8643H12C10.9 48.8643 10 49.7643 10 50.8643ZM26 38.8643C24.9 38.8643 24 39.7643 24 40.8643V42.8643C24 43.9643 24.9 44.8643 26 44.8643H32C33.1 44.8643 34 43.9643 34 42.8643V40.8643C34 39.7643 33.1 38.8643 32 38.8643H26ZM24 50.8643V52.8643C24 53.9643 24.9 54.8643 26 54.8643H32C33.1 54.8643 34 53.9643 34 52.8643V50.8643C34 49.7643 33.1 48.8643 32 48.8643H26C24.9 48.8643 24 49.7643 24 50.8643Z" fill="#143D60"/>
</g>
<defs>
<clipPath id="clip0_3562_1087">
<rect width="64" height="64" fill="white" transform="translate(0 0.864258)"/>
</clipPath>
</defs>
</svg>
