<svg width="40" height="40" viewBox="0 0 40 40" fill="none" xmlns="http://www.w3.org/2000/svg">
<rect width="40" height="40" rx="20" fill="#D0D8DF"/>
<g clip-path="url(#clip0_3410_7002)">
<path d="M20.0938 13.5969C20.0344 13.5719 19.9656 13.5719 19.9062 13.5969L11.9688 16.8157C11.6844 16.9313 11.5 17.2063 11.5 17.5094V27.25C11.5 27.6657 11.1656 28 10.75 28C10.3344 28 10 27.6657 10 27.25V17.5094C10 16.5938 10.5563 15.7688 11.4031 15.425L19.3438 12.2063C19.7656 12.0344 20.2375 12.0344 20.6594 12.2063L28.5969 15.425C29.4469 15.7688 30.0031 16.5938 30.0031 17.5094L30 27.25C30 27.6657 29.6656 28 29.25 28C28.8344 28 28.5 27.6657 28.5 27.25V17.5094C28.5 17.2032 28.3156 16.9282 28.0312 16.8157L20.0938 13.5969ZM14.5 19.5V27.25C14.5 27.6657 14.1656 28 13.75 28C13.3344 28 13 27.6657 13 27.25V19.25C13 18.5594 13.5594 18 14.25 18H25.75C26.4406 18 27 18.5594 27 19.25V27.25C27 27.6657 26.6656 28 26.25 28C25.8344 28 25.5 27.6657 25.5 27.25V19.5H14.5ZM21.75 25H23.75C24.1656 25 24.5 25.3344 24.5 25.75V27.25C24.5 27.6657 24.1656 28 23.75 28H21.75C21.3344 28 21 27.6657 21 27.25V25.75C21 25.3344 21.3344 25 21.75 25ZM15.5 21.75C15.5 21.3344 15.8344 21 16.25 21H19.25C19.6656 21 20 21.3344 20 21.75V23.25C20 23.6657 19.6656 24 19.25 24H16.25C15.8344 24 15.5 23.6657 15.5 23.25V21.75ZM16.25 25H19.25C19.6656 25 20 25.3344 20 25.75V27.25C20 27.6657 19.6656 28 19.25 28H16.25C15.8344 28 15.5 27.6657 15.5 27.25V25.75C15.5 25.3344 15.8344 25 16.25 25Z" fill="#143D60"/>
</g>
<defs>
<clipPath id="clip0_3410_7002">
<rect width="20" height="16" fill="white" transform="translate(10 12)"/>
</clipPath>
</defs>
</svg>
