<svg width="40" height="41" viewBox="0 0 40 41" fill="none" xmlns="http://www.w3.org/2000/svg">
<rect y="0.727295" width="40" height="40" rx="20" fill="#D0D8DF"/>
<g clip-path="url(#clip0_3877_1167)">
<path d="M15.6906 28.4773C15.2094 28.4773 14.75 28.2867 14.4094 27.946L10.6469 24.1835C10.3938 23.9304 10.25 23.5867 10.25 23.2273C10.25 22.8679 10.3938 22.5242 10.6469 22.271L14.4094 18.5085C14.75 18.1679 15.2094 17.9773 15.6906 17.9773C16.6906 17.9773 17.5 18.7867 17.5 19.7867V19.9773H23.5C23.775 19.9773 24 20.2023 24 20.4773V21.6679C24 21.8398 24.1406 21.9773 24.3094 21.9773C24.3906 21.9773 24.4719 21.946 24.5281 21.8867L28.1906 18.2273L24.5312 14.5679C24.4719 14.5085 24.3938 14.4773 24.3125 14.4773C24.1406 14.4773 24.0031 14.6179 24.0031 14.7867V15.9773C24.0031 16.2523 23.7781 16.4773 23.5031 16.4773H20C19.5844 16.4773 19.25 16.1429 19.25 15.7273C19.25 15.3117 19.5844 14.9773 20 14.9773H22.5V14.7867C22.5 13.7867 23.3094 12.9773 24.3094 12.9773C24.7906 12.9773 25.25 13.1679 25.5906 13.5085L29.3531 17.271C29.6062 17.5242 29.75 17.8679 29.75 18.2273C29.75 18.5867 29.6062 18.9304 29.3531 19.1835L25.5906 22.946C25.25 23.2867 24.7906 23.4773 24.3094 23.4773C23.3094 23.4773 22.5 22.6679 22.5 21.6679V21.4773H16.5C16.225 21.4773 16 21.2523 16 20.9773V19.7867C16 19.6148 15.8594 19.4773 15.6906 19.4773C15.6094 19.4773 15.5281 19.5085 15.4719 19.5679L11.8094 23.2273L15.4688 26.8867C15.5281 26.946 15.6062 26.9773 15.6875 26.9773C15.8594 26.9773 15.9969 26.8367 15.9969 26.6679V25.4773C15.9969 25.2023 16.2219 24.9773 16.4969 24.9773H20C20.4156 24.9773 20.75 25.3117 20.75 25.7273C20.75 26.1429 20.4156 26.4773 20 26.4773H17.5V26.6679C17.5 27.6679 16.6906 28.4773 15.6906 28.4773Z" fill="#143D60"/>
</g>
<defs>
<clipPath id="clip0_3877_1167">
<rect width="20" height="16" fill="white" transform="translate(10 12.7273)"/>
</clipPath>
</defs>
</svg>
