<svg width="40" height="41" viewBox="0 0 40 41" fill="none" xmlns="http://www.w3.org/2000/svg">
<rect y="0.727295" width="40" height="40" rx="20" fill="#D0D8DF"/>
<path d="M12.5531 13.7273C12.225 13.7273 11.9344 13.9429 11.8375 14.2554L11.0281 16.8835C11.0094 16.946 11 17.0117 11 17.0742C11 17.4367 11.2906 17.7273 11.6531 17.7273H14.5906L15.3906 13.7273H12.5531ZM19.5 17.7273V13.7273H16.4094L15.6094 17.7273H19.5ZM20.5 17.7273H24.3906L23.5906 13.7273H20.5V17.7273ZM25.4094 17.7273H28.3469C28.7062 17.7273 29 17.4367 29 17.0742C29 17.0085 28.9906 16.946 28.9719 16.8835L28.1625 14.2554C28.0656 13.9429 27.775 13.7273 27.4469 13.7273H24.6094L25.4094 17.7273ZM13.7 20.2273H26.3031L25.6781 25.2273H14.325L13.7 20.2273ZM14.5 26.7273H25.5V26.9773C25.5 27.3929 25.8344 27.7273 26.25 27.7273C26.6656 27.7273 27 27.3929 27 26.9773V26.7273L27.6875 21.2273H28.25C28.6656 21.2273 29 20.8929 29 20.4773C29 20.0617 28.6656 19.7273 28.25 19.7273H27.875L28 18.7273H26.4875H13.5125H12L12.125 19.7273H11.75C11.3344 19.7273 11 20.0617 11 20.4773C11 20.8929 11.3344 21.2273 11.75 21.2273H12.3125L13 26.7273V26.9773C13 27.3929 13.3344 27.7273 13.75 27.7273C14.1656 27.7273 14.5 27.3929 14.5 26.9773V26.7273Z" fill="#143D60"/>
</svg>
