<svg width="40" height="41" viewBox="0 0 40 41" fill="none" xmlns="http://www.w3.org/2000/svg">
<rect y="0.727295" width="40" height="40" rx="20" fill="#D0D8DF"/>
<g clip-path="url(#clip0_3877_1173)">
<path d="M16 14.2273C16 13.8295 15.842 13.4479 15.5607 13.1666C15.2794 12.8853 14.8978 12.7273 14.5 12.7273C14.1022 12.7273 13.7206 12.8853 13.4393 13.1666C13.158 13.4479 13 13.8295 13 14.2273C13 14.6251 13.158 15.0067 13.4393 15.288C13.7206 15.5693 14.1022 15.7273 14.5 15.7273C14.8978 15.7273 15.2794 15.5693 15.5607 15.288C15.842 15.0067 16 14.6251 16 14.2273ZM12 23.3617V27.9773C12 28.3929 12.3344 28.7273 12.75 28.7273C13.1656 28.7273 13.5 28.3929 13.5 27.9773V24.5429L12.05 23.4023C12.0344 23.3898 12.0156 23.3742 12 23.3617ZM13.5 18.5773C13.5 18.3835 13.6562 18.2273 13.85 18.2273C13.9906 18.2273 14.1281 18.2617 14.25 18.321V21.9523L13.5969 21.4367C13.5375 21.3898 13.5 21.3179 13.5 21.2398V18.5742V18.5773ZM15.75 23.1304V20.421L16.2219 21.1554C16.4531 21.5117 16.8469 21.7304 17.2719 21.7304H18.975L19.8219 25.1148C19.3219 25.4773 19 26.0679 19 26.7304C19 27.8335 19.8969 28.7304 21 28.7304C22.0094 28.7304 22.8469 27.9804 22.9812 27.0085L27.1812 25.9585C27.5844 25.8585 27.8281 25.4523 27.7281 25.0492C27.6281 24.646 27.2219 24.4023 26.8188 24.5023L22.6156 25.5492C22.3031 25.121 21.825 24.821 21.2781 24.746L19.7281 18.546C19.6281 18.1429 19.2219 17.8992 18.8187 17.9992C18.4156 18.0992 18.1719 18.5054 18.2719 18.9085L18.6031 20.2273H17.4094L15.8688 17.8304C15.4281 17.1429 14.6656 16.7273 13.85 16.7273C12.8281 16.7273 12 17.5554 12 18.5773V21.2429C12 21.7804 12.2469 22.2867 12.6687 22.6179L15.55 24.8804L16.0062 28.0835C16.0656 28.4929 16.4437 28.7773 16.8562 28.721C17.2687 28.6648 17.55 28.2835 17.4938 27.871L17.0219 24.571C16.975 24.2523 16.8094 23.9648 16.5563 23.7648L15.75 23.1304ZM21 26.2273C21.1326 26.2273 21.2598 26.28 21.3536 26.3737C21.4473 26.4675 21.5 26.5947 21.5 26.7273C21.5 26.8599 21.4473 26.9871 21.3536 27.0808C21.2598 27.1746 21.1326 27.2273 21 27.2273C20.8674 27.2273 20.7402 27.1746 20.6464 27.0808C20.5527 26.9871 20.5 26.8599 20.5 26.7273C20.5 26.5947 20.5527 26.4675 20.6464 26.3737C20.7402 26.28 20.8674 26.2273 21 26.2273ZM23.1687 24.4835L26.0312 23.771C26.5656 23.6367 26.8937 23.0929 26.7594 22.5585L26.0437 19.696C25.9094 19.1617 25.3656 18.8335 24.8313 18.9679L21.9688 19.6835C21.4344 19.8179 21.1063 20.3617 21.2406 20.896L21.9563 23.7585C22.0906 24.2929 22.6344 24.621 23.1687 24.4867V24.4835Z" fill="#143D60"/>
</g>
<defs>
<clipPath id="clip0_3877_1173">
<rect width="16" height="16" fill="white" transform="translate(12 12.7273)"/>
</clipPath>
</defs>
</svg>
